<svg width="40" height="40" viewBox="0 0 40 40" fill="none" xmlns="http://www.w3.org/2000/svg">
<path d="M14.25 33C14.25 35.0711 11.7316 36.75 8.625 36.75C5.51841 36.75 3 35.0711 3 33C3 30.9289 5.51841 29.25 8.625 29.25C11.7316 29.25 14.25 30.9289 14.25 33ZM14.25 33V6.75L36.75 3V29.25M36.75 29.25C36.75 31.3211 34.2317 33 31.125 33C28.0183 33 25.5 31.3211 25.5 29.25C25.5 27.1789 28.0183 25.5 31.125 25.5C34.2317 25.5 36.75 27.1789 36.75 29.25ZM14.25 14.25L36.75 10.5" stroke="#B0B0B0" stroke-width="6" stroke-linecap="round" stroke-linejoin="round"/>
</svg>
